<?xml version="1.0" encoding="UTF-8"?>
<svg width="700pt" height="700pt" version="1.1" viewBox="0 0 700 700" xmlns="http://www.w3.org/2000/svg">
 <path d="m253.75 35c-6.7227 0.011719-11.492 6.8359-9.4375 13.504l47.867 154.68 17.711-2.8867c17.371-2.832 33.875 9.8203 36.5 26.918 2.6289 17.098-8.9727 34.004-26.344 36.836l-8.582 1.3828 30.449 98.367 196.29-59.414c-6.1562-13.328-33.551-70.672-78.043-130.91-50.43-68.277-121.6-138.48-206.41-138.48zm85.855 72.949c2.0039 0.066406 3.9414 0.76562 5.5547 2 4.332 3.2578 8.6445 6.6719 12.84 10.168 10.145 8.6875-2.1523 24.621-12.48 16.168-3.9453-3.293-7.9688-6.5078-12.016-9.5508-7.6641-5.6445-4.2227-18.188 5.1445-18.77 0.32031-0.023438 0.63672-0.027344 0.95703-0.015625zm35.609 31.398c2.6914-0.039062 5.2812 1.0586 7.1797 3.043 11.125 11.336 22.402 23.402 33.133 36.645 8.0156 10.477-6.5547 23.34-15.164 13.383-10.113-12.48-20.969-24.07-31.883-35.191-6.5312-6.3945-2.2266-17.816 6.7344-17.879zm-139.46 11.504c-13.02-0.003906-23.578 10.543-23.578 23.551 0 13.012 10.559 23.559 23.578 23.555 13.012-0.003906 23.555-10.547 23.555-23.555 0-13.004-10.543-23.547-23.555-23.551zm-21.695 50.953c-11.914 0-17.18 10.715-21.508 22.152-9.3867 24.816-9.7266 48.992 0 72.453 4.6328 11.777 7.8945 19.562 18.582 22.426l41.559 11.469c0.72266 0.19922 1.4336 0.25391 2.1523 0.35937l20.793 38.676c3.8477 7.1602 12.543 9.7266 19.488 5.7617 6.9492-3.9648 9.457-12.91 5.6094-20.066-9.7305-17.832-18.008-33.309-29.609-54.301-1.7734-3.2109-5.4102-5.0508-9.1641-6.0859l-30.004-8.2891c-4.5859-15.473-4.3242-30.184-1.3828-44.477l20.754 12.359c3.8672 2.4648 6.4805 2.2188 10.887 1.4688l55-8.957c7.8438-1.2773 13.156-8.8047 11.914-16.887-1.2422-8.0781-8.5469-13.551-16.395-12.27l-51.543 8.3906-32.773-19.484c-4.5-3.0586-9.4922-4.5352-14.359-4.6992zm300.51 128.17-316.84 95.75c8.2617 3.832 14.816 8.7344 19.676 12.137 8.6523 6.0547 14.438 8.0703 14.172 8.2383 0.19531 0.003907 0.38672-0.003906 0.58203 0-0.26562-0.16797 5.6289-2.2031 14.258-8.2383 8.9883-6.2891 23.578-17.879 44.551-17.879 15.344 0 27.188 6.2031 35.988 12 104.21-31.008 187.61-102.01 187.61-102.01zm-298.87 8.2539-7.3867 43.672c-1.3633 8.0586 3.8516 15.672 11.676 17.074 7.8242 1.4023 15.219-3.957 16.582-12.016l6.8555-40.543-0.32422-0.59766zm-42.859 99.238c-14.328 0-29.266 7.3789-41.816 14.203s-22.293 13.641-22.293 13.641c-9.5977 6.7148 0.51953 21.102 10.086 14.34 0 0 9.0273-6.2969 20.617-12.598 11.59-6.3008 26.191-12.086 33.406-12.086 7.2148 0 15.102 5.0078 24.48 11.57s20.242 14.715 34.566 14.715c14.328 0 25.188-8.1523 34.566-14.715 9.3789-6.5625 17.281-11.57 24.5-11.57 7.2148 0 15.102 5.0078 24.48 11.57 9.3789 6.5625 20.242 14.715 34.566 14.715 14.328 0 25.188-8.1523 34.566-14.715s17.281-11.57 24.5-11.57c7.2148 0 15.102 5.0078 24.48 11.57 9.3789 6.5625 20.242 14.715 34.566 14.715 14.328 0 25.188-8.1523 34.566-14.715 9.3789-6.5625 17.281-11.57 24.5-11.57 7.2148 0 21.812 5.7812 33.406 12.086 11.59 6.3008 20.602 12.598 20.602 12.598 9.5703 6.7617 19.688-7.625 10.086-14.34 0 0-9.7422-6.8164-22.293-13.641-12.551-6.8242-27.473-14.203-41.801-14.203s-25.188 8.1719-34.566 14.734-17.281 11.555-24.5 11.555c-7.2148 0-15.102-4.9922-24.48-11.555s-20.242-14.734-34.566-14.734c-14.328 0-25.188 8.1719-34.566 14.734s-17.281 11.555-24.5 11.555c-7.2148 0-15.102-4.9922-24.48-11.555s-20.242-14.734-34.566-14.734c-14.328 0-25.188 8.1719-34.566 14.734-9.3789 6.5625-17.281 11.555-24.5 11.555-7.2148 0-15.102-4.9922-24.48-11.555s-20.238-14.734-34.566-14.734zm0 43.789c-14.328 0-29.266 7.3281-41.816 14.152-12.551 6.8242-22.293 13.641-22.293 13.641-9.5664 6.7227 0.52344 21.062 10.086 14.34 0 0 9.0273-6.2969 20.617-12.598 11.59-6.3008 26.191-12.016 33.406-12.016 7.2148 0 15.102 4.9219 24.48 11.484s20.242 14.734 34.566 14.734c14.328 0 25.188-8.1719 34.566-14.734 9.3789-6.5625 17.281-11.484 24.5-11.484 7.2148 0 15.102 4.9219 24.48 11.484 9.3789 6.5625 20.242 14.734 34.566 14.734 14.328 0 25.188-8.1719 34.566-14.734s17.281-11.484 24.5-11.484c7.2148 0 15.102 4.9219 24.48 11.484 9.3789 6.5625 20.242 14.734 34.566 14.734 14.328 0 25.188-8.1719 34.566-14.734 9.3789-6.5625 17.281-11.484 24.5-11.484 7.2148 0 21.812 5.7148 33.406 12.016 11.59 6.3008 20.602 12.598 20.602 12.598 9.5625 6.7266 19.648-7.6133 10.086-14.34 0 0-9.7422-6.8164-22.293-13.641-12.551-6.8242-27.473-14.152-41.801-14.152s-25.188 8.1016-34.566 14.664-17.281 11.57-24.5 11.57c-7.2148 0-15.102-5.0078-24.48-11.57s-20.242-14.664-34.566-14.664c-14.328 0-25.188 8.1016-34.566 14.664s-17.281 11.57-24.5 11.57c-7.2148 0-15.102-5.0078-24.48-11.57s-20.242-14.664-34.566-14.664c-14.328 0-25.188 8.1016-34.566 14.664-9.3789 6.5625-17.281 11.57-24.5 11.57-7.2148 0-15.102-5.0078-24.48-11.57-9.3789-6.5586-20.238-14.66-34.566-14.66z"/>
</svg>
